<svg width="27" height="26" viewBox="0 0 27 26" fill="none" xmlns="http://www.w3.org/2000/svg">
<path d="M2.43378 0.0436554H0.264706C0.118513 0.0436554 0 0.162437 0 0.308962V25.672C0 25.8185 0.118513 25.9373 0.264706 25.9373H2.43378C2.57997 25.9373 2.69849 25.8185 2.69849 25.672V0.308962C2.69849 0.162437 2.5799 0.0436554 2.43378 0.0436554Z" fill="#C0583E"/>
<path d="M5.08484 21.4955H6.1693C6.31549 21.4955 6.434 21.3767 6.434 21.2302V0.308962C6.434 0.162437 6.31549 0.0436554 6.1693 0.0436554H5.08484C4.93864 0.0436554 4.82013 0.162437 4.82013 0.308962V21.2302C4.82013 21.3767 4.93872 21.4955 5.08484 21.4955Z" fill="#C0583E"/>
<path d="M9.18194 21.4955H10.5878C10.734 21.4955 10.8525 21.3767 10.8525 21.2302V0.308962C10.8525 0.162437 10.734 0.0436554 10.5878 0.0436554H9.18194C9.03575 0.0436554 8.91724 0.162437 8.91724 0.308962V21.2302C8.91724 21.3767 9.03582 21.4955 9.18194 21.4955Z" fill="#C0583E"/>
<path d="M12.9177 21.4955H14.2833C14.4295 21.4955 14.548 21.3767 14.548 21.2302V0.308962C14.548 0.162437 14.4295 0.0436554 14.2833 0.0436554H12.9177C12.7715 0.0436554 12.653 0.162437 12.653 0.308962V21.2302C12.653 21.3767 12.7715 21.4955 12.9177 21.4955Z" fill="#C0583E"/>
<path d="M16.6532 21.4955H18.8223C18.9685 21.4955 19.087 21.3767 19.087 21.2302V0.308962C19.087 0.162437 18.9685 0.0436554 18.8223 0.0436554H16.6532C16.507 0.0436554 16.3885 0.162437 16.3885 0.308962V21.2302C16.3885 21.3767 16.5071 21.4955 16.6532 21.4955Z" fill="#C0583E"/>
<path d="M21.1119 21.4955H22.5578C22.704 21.4955 22.8226 21.3767 22.8226 21.2302V0.308962C22.8226 0.162437 22.704 0.0436554 22.5578 0.0436554H21.1119C20.9657 0.0436554 20.8472 0.162437 20.8472 0.308962V21.2302C20.8472 21.3767 20.9657 21.4955 21.1119 21.4955Z" fill="#C0583E"/>
<path d="M26.7353 0.0436554H24.5662C24.42 0.0436554 24.3015 0.162437 24.3015 0.308962V25.672C24.3015 25.8185 24.42 25.9373 24.5662 25.9373H26.7353C26.8815 25.9373 27 25.8185 27 25.672V0.308962C27 0.162437 26.8815 0.0436554 26.7353 0.0436554Z" fill="#C0583E"/>
<path fill-rule="evenodd" clip-rule="evenodd" d="M3.93762 24.3014C3.93762 23.2523 4.42513 22.6507 5.2756 22.6507C6.12863 22.6507 6.61803 23.2523 6.61803 24.3014C6.61803 25.3532 6.12863 25.9563 5.2756 25.9563C4.42513 25.9563 3.93762 25.3531 3.93762 24.3014ZM4.36319 24.3014C4.36319 25.1164 4.6701 25.5296 5.2756 25.5296C6.07319 25.5296 6.19246 24.7601 6.19246 24.3014C6.19246 23.4891 5.88404 23.0773 5.2756 23.0773C4.67018 23.0773 4.36319 23.4891 4.36319 24.3014Z" fill="#C0583E"/>
<path d="M7.47897 22.6507H6.82787C6.71488 22.6507 6.62329 22.7426 6.62329 22.8558V22.8722C6.62329 22.9854 6.71488 23.0773 6.82787 23.0773H7.25775V25.7511C7.25775 25.8645 7.34949 25.9563 7.46233 25.9563H7.47897C7.59181 25.9563 7.68355 25.8645 7.68355 25.7511V22.8558C7.68355 22.7426 7.59181 22.6507 7.47897 22.6507Z" fill="#C0583E"/>
<path d="M9.34002 24.3001H8.49016C8.37702 24.3001 8.28558 24.3919 8.28558 24.5053V24.5217C8.28558 24.635 8.37702 24.7269 8.49016 24.7269H9.34002C9.45301 24.7269 9.5446 24.635 9.5446 24.5217V24.5053C9.5446 24.3919 9.45301 24.3001 9.34002 24.3001Z" fill="#C0583E"/>
<path fill-rule="evenodd" clip-rule="evenodd" d="M9.67755 24.3014C9.67755 23.2523 10.1652 22.6507 11.0156 22.6507C11.8688 22.6507 12.3579 23.2523 12.3579 24.3014C12.3579 25.3532 11.8687 25.9563 11.0156 25.9563C10.1652 25.9563 9.67755 25.3531 9.67755 24.3014ZM10.1033 24.3014C10.1033 25.1164 10.4102 25.5296 11.0156 25.5296C11.8133 25.5296 11.9325 24.7601 11.9325 24.3014C11.9325 23.4891 11.624 23.0773 11.0156 23.0773C10.4103 23.0773 10.1033 23.4891 10.1033 24.3014Z" fill="#C0583E"/>
<path d="M13.2187 22.6507H12.5679C12.4549 22.6507 12.3633 22.7426 12.3633 22.8558V22.8722C12.3633 22.9854 12.4549 23.0773 12.5679 23.0773H12.9979V25.7511C12.9979 25.8645 13.0895 25.9563 13.2025 25.9563H13.2187C13.3319 25.9563 13.4236 25.8645 13.4236 25.7511V22.8558C13.4236 22.7426 13.3319 22.6507 13.2187 22.6507Z" fill="#C0583E"/>
<path d="M16.0106 25.5296H14.5826L15.4416 24.5708C15.7882 24.2086 15.9953 23.8132 15.9953 23.5128C15.9953 22.9891 15.6012 22.6507 14.9914 22.6507C14.648 22.6507 14.2868 22.804 14.025 23.0608C13.9859 23.0991 13.9636 23.1513 13.9635 23.2062C13.9629 23.2608 13.9845 23.3135 14.0231 23.3523L14.0341 23.3633C14.1134 23.4431 14.2419 23.4438 14.3221 23.3651C14.5032 23.1876 14.7597 23.0774 14.9915 23.0774C15.1652 23.0774 15.5697 23.1199 15.5697 23.5128C15.5697 23.6556 15.4557 23.9411 15.1305 24.2812L13.9977 25.5426C13.9639 25.5803 13.9449 25.6292 13.9449 25.6799V25.7513C13.9449 25.8647 14.0368 25.9565 14.1498 25.9565H16.0106C16.1238 25.9565 16.2154 25.8647 16.2154 25.7513V25.735C16.2153 25.6215 16.1237 25.5296 16.0106 25.5296Z" fill="#C0583E"/>
<path d="M17.5248 23.9527L18.3143 23.018C18.3455 22.9809 18.3629 22.934 18.3629 22.8853V22.8557C18.3629 22.7425 18.2711 22.6506 18.1583 22.6506H16.6697C16.5565 22.6506 16.4649 22.7425 16.4649 22.8557V22.8721C16.4649 22.9854 16.5565 23.0772 16.6697 23.0772H17.7091L16.9241 24.0028C16.8925 24.04 16.8751 24.0871 16.8751 24.1357V24.1653C16.8751 24.2786 16.9669 24.3705 17.08 24.3705H17.342C17.6772 24.3705 18.0766 24.4636 18.0766 24.9075C18.0766 25.297 17.805 25.5295 17.3504 25.5295C17.1206 25.5295 16.8722 25.4587 16.6855 25.3401C16.5952 25.2828 16.4763 25.3046 16.4121 25.3902L16.4027 25.4031C16.3682 25.4491 16.3546 25.5075 16.3652 25.5641C16.3758 25.6206 16.4096 25.6701 16.4584 25.7004C16.7198 25.8629 17.0449 25.9561 17.3504 25.9561C18.0394 25.9561 18.5024 25.5278 18.5024 24.8905C18.5024 24.3669 18.1248 24.0119 17.5248 23.9527Z" fill="#C0583E"/>
<path d="M20.8599 24.6478H20.5908V23.9073C20.5908 23.7941 20.4992 23.7022 20.3861 23.7022H20.3697C20.2566 23.7022 20.1651 23.7941 20.1651 23.9073V24.6478H19.2853L20.2551 22.9581C20.2916 22.8946 20.2913 22.8166 20.2549 22.7531C20.2183 22.6897 20.1508 22.6507 20.0779 22.6507H20.059C19.9858 22.6507 19.9181 22.69 19.8815 22.7535L18.7621 24.7042C18.7444 24.7354 18.735 24.7706 18.735 24.8065V24.8693C18.735 24.9825 18.8267 25.0744 18.9397 25.0744H20.165V25.7511C20.165 25.8645 20.2565 25.9563 20.3697 25.9563H20.386C20.4991 25.9563 20.5907 25.8645 20.5907 25.7511V25.0744H20.8598C20.9728 25.0744 21.0645 24.9824 21.0645 24.8693V24.8528C21.0647 24.7395 20.973 24.6478 20.8599 24.6478Z" fill="#C0583E"/>
<path d="M22.0914 23.8464C21.9508 23.8464 21.7807 23.8693 21.6146 23.9089V23.0774H22.9033C23.0163 23.0774 23.1079 22.9855 23.1079 22.8723V22.8559C23.1079 22.7426 23.0163 22.6508 22.9033 22.6508H21.3936C21.2806 22.6508 21.189 22.7426 21.189 22.8559V24.2047C21.189 24.2719 21.222 24.3349 21.2772 24.3733C21.3323 24.4115 21.4027 24.4204 21.4654 24.3967C21.6653 24.3216 21.9109 24.273 22.0913 24.273C22.5275 24.273 22.7881 24.4833 22.7881 24.8356C22.7881 25.2649 22.5245 25.5212 22.0829 25.5212C21.8515 25.5212 21.5576 25.4318 21.3338 25.2934C21.2381 25.2342 21.1128 25.2635 21.053 25.3589L21.0468 25.3689C21.0178 25.415 21.0083 25.4706 21.0205 25.5237C21.0325 25.5767 21.0651 25.6228 21.111 25.6518C21.4006 25.8344 21.7731 25.9478 22.0829 25.9478C22.7592 25.9478 23.2136 25.5008 23.2136 24.8357C23.2136 24.2439 22.7628 23.8464 22.0914 23.8464Z" fill="#C0583E"/>
</svg>
