<svg width="62" height="62" viewBox="0 0 62 62" fill="none" xmlns="http://www.w3.org/2000/svg">
<circle cx="31" cy="31" r="31" fill="#FFE6A8"/>
<path d="M43.0539 26.06V28.5847L43.1766 28.8825L43.0539 28.932V33.3836L44.7446 32.6987L45.1155 33.5999C45.2788 33.9984 45.0947 34.4515 44.7049 34.61L24.298 42.8825C23.9119 43.0391 23.4533 42.8348 23.2932 42.4463L22.9228 41.5447L38.54 35.2139H27.5594L21.3548 37.729L20.321 35.2134H19.2831L22.4043 42.8064C22.6751 43.4652 23.308 43.8908 24.0175 43.8908C24.2389 43.8908 24.4562 43.8487 24.662 43.7653L45.0684 35.4929C45.9486 35.1355 46.3689 34.1249 46.0049 33.2389L43.0539 26.06Z" fill="#DDA000"/>
<path d="M37.4273 28.4524V27.8389L37.0688 28.4524H37.4273Z" fill="#DDA000"/>
<path d="M25.0388 27.8389L24.6813 28.4524H25.0388V27.8389Z" fill="#DDA000"/>
<path d="M27.3855 28.7171C27.4215 28.6704 27.439 28.6099 27.439 28.5348C27.439 28.4519 27.4187 28.3882 27.3777 28.3438C27.3366 28.2993 27.2868 28.2773 27.2273 28.2773C27.1793 28.2773 27.1364 28.292 27.1 28.3209C27.0446 28.3635 27.0169 28.4322 27.0169 28.527C27.0169 28.6035 27.0377 28.6663 27.0792 28.7144C27.1207 28.763 27.1738 28.7872 27.2374 28.7872C27.3002 28.7872 27.3495 28.7634 27.3855 28.7171Z" fill="#DDA000"/>
<path d="M20.8589 32.1618C20.9124 32.1618 20.9627 32.1467 21.0084 32.1151C21.054 32.0848 21.0776 32.0285 21.0789 31.9456V31.8544C21.0628 31.864 21.0471 31.8723 21.031 31.8782C21.0153 31.8842 20.9927 31.8892 20.9645 31.8947L20.9083 31.9053C20.8552 31.914 20.8174 31.9254 20.7939 31.9387C20.7551 31.9612 20.7353 31.996 20.7353 32.0432C20.7353 32.0853 20.7473 32.1146 20.7708 32.1334C20.7952 32.1527 20.8248 32.1618 20.8589 32.1618Z" fill="#DDA000"/>
<path d="M30.6017 28.7854C30.6659 28.7854 30.7171 28.7662 30.7535 28.7277C30.79 28.6892 30.8084 28.6342 30.8084 28.5646C30.8084 28.4922 30.7895 28.4368 30.7526 28.3992C30.7148 28.3612 30.6649 28.3429 30.6017 28.3429C30.5385 28.3429 30.4883 28.3616 30.4509 28.3992C30.4135 28.4368 30.3951 28.4917 30.3951 28.5646C30.3951 28.6347 30.4135 28.6892 30.45 28.7277C30.4864 28.7662 30.5376 28.7854 30.6017 28.7854Z" fill="#DDA000"/>
<path d="M23.5151 31.5493C23.4515 31.5493 23.4026 31.5667 23.3675 31.6024C23.3324 31.6382 23.3108 31.6872 23.302 31.7481H23.7273C23.7232 31.6822 23.701 31.6331 23.6618 31.5992C23.6221 31.5658 23.5732 31.5493 23.5151 31.5493Z" fill="#DDA000"/>
<path d="M31.7259 27.7757C31.678 27.7757 31.6369 27.789 31.6023 27.8156C31.5483 27.8572 31.5211 27.9287 31.5211 28.029C31.5211 28.1133 31.5386 28.1766 31.5732 28.2192C31.6078 28.2613 31.6609 28.2824 31.7324 28.2824C31.7721 28.2824 31.808 28.2714 31.8422 28.2489C31.9063 28.2086 31.9381 28.1376 31.9381 28.0382C31.9381 27.9576 31.9197 27.8939 31.8818 27.8467C31.8436 27.7991 31.7919 27.7757 31.7259 27.7757Z" fill="#DDA000"/>
<path d="M30.6013 28.128C30.659 28.128 30.7032 28.1115 30.7346 28.0785C30.7655 28.0455 30.7817 28.0038 30.7817 27.9516C30.7817 27.8953 30.7655 27.8513 30.7346 27.8192C30.7032 27.7871 30.6585 27.7716 30.6013 27.7716C30.5446 27.7716 30.4998 27.7871 30.468 27.8192C30.4357 27.8513 30.42 27.8953 30.42 27.9516C30.42 28.0029 30.4357 28.0455 30.468 28.0785C30.4998 28.112 30.5446 28.128 30.6013 28.128Z" fill="#DDA000"/>
<path d="M26.5362 31.9057C26.4836 31.9144 26.4453 31.9259 26.4227 31.9392C26.384 31.9616 26.3641 31.9964 26.3641 32.0436C26.3641 32.0858 26.3761 32.1151 26.3997 32.1339C26.4232 32.1527 26.4527 32.1623 26.4864 32.1623C26.5404 32.1623 26.5902 32.1472 26.6358 32.1155C26.6815 32.0848 26.705 32.029 26.7064 31.946V31.8549C26.6907 31.8645 26.6751 31.8727 26.6585 31.8787C26.6428 31.8846 26.6202 31.8897 26.592 31.8952L26.5362 31.9057Z" fill="#DDA000"/>
<path d="M30.6834 31.9057C30.6304 31.914 30.5925 31.9259 30.5695 31.9392C30.5307 31.9616 30.5109 31.9964 30.5109 32.0436C30.5109 32.0858 30.5229 32.1151 30.5464 32.1339C30.5699 32.1527 30.5994 32.1623 30.6336 32.1623C30.6871 32.1623 30.7374 32.1472 30.7831 32.1155C30.8287 32.0848 30.8522 32.029 30.8536 31.946V31.8549C30.8379 31.8645 30.8218 31.8727 30.8057 31.8787C30.79 31.8846 30.7674 31.8897 30.7392 31.8952L30.6834 31.9057Z" fill="#DDA000"/>
<path d="M33.1426 31.6024C33.1071 31.6382 33.0859 31.6872 33.0767 31.7481H33.5024C33.4978 31.6822 33.4752 31.6331 33.436 31.5992C33.3963 31.5658 33.3479 31.5493 33.2898 31.5493C33.2261 31.5493 33.1772 31.5667 33.1426 31.6024Z" fill="#DDA000"/>
<path d="M39.6254 28.7872C39.6882 28.7872 39.7371 28.7634 39.773 28.7171C39.8095 28.6704 39.827 28.6099 39.827 28.5348C39.827 28.4519 39.8063 28.3882 39.7652 28.3438C39.7246 28.2993 39.6748 28.2773 39.6148 28.2773C39.5668 28.2773 39.5239 28.292 39.488 28.3209C39.4326 28.3635 39.4049 28.4322 39.4049 28.527C39.4049 28.6035 39.4252 28.6663 39.4672 28.7144C39.5087 28.763 39.5622 28.7872 39.6254 28.7872Z" fill="#DDA000"/>
<path d="M19.1792 28.6548C19.206 28.7414 19.2618 28.7854 19.3453 28.7854C19.4288 28.7854 19.4837 28.7419 19.51 28.6548C19.5326 28.5806 19.5432 28.4716 19.5469 28.3406C19.5474 28.319 19.5497 28.3025 19.5497 28.2796C19.5497 28.1083 19.5367 27.9809 19.5109 27.8985C19.4851 27.816 19.4302 27.7748 19.3462 27.7748C19.2623 27.7748 19.2074 27.8156 19.1802 27.8985C19.1525 27.9809 19.1396 28.1083 19.1396 28.2796C19.1396 28.3639 19.1432 28.4377 19.1506 28.5014C19.1557 28.5614 19.1654 28.6132 19.1792 28.6548Z" fill="#DDA000"/>
<path fill-rule="evenodd" clip-rule="evenodd" d="M17.734 34.1684C17.9572 34.2733 18.2045 34.337 18.467 34.337H18.9223H19.9603H29.7216H40.7021H40.715C41.1837 34.337 41.6077 34.1478 41.9209 33.8431C42.2466 33.5252 42.4519 33.0822 42.4519 32.5902V29.1767V27.1224V24.5967V19.7397C42.4519 19.2476 42.2466 18.8042 41.9209 18.4867C41.6072 18.182 41.1833 17.9924 40.715 17.9924H18.4675C17.5093 17.9924 16.7302 18.7767 16.7302 19.7397V32.5902C16.7302 33.2884 17.143 33.889 17.734 34.1684ZM18.8503 28.2796C18.8503 28.0446 18.8872 27.8627 18.9606 27.7354C19.0339 27.6076 19.1617 27.5439 19.3449 27.5439C19.5275 27.5439 19.6558 27.608 19.7291 27.7354C19.796 27.8517 19.8288 28.018 19.8343 28.2233C19.8345 28.2325 19.8357 28.2407 19.8368 28.249C19.8381 28.2584 19.8394 28.268 19.8394 28.2792C19.8394 28.5142 19.8025 28.6952 19.7291 28.8221C19.6558 28.949 19.5275 29.0126 19.3449 29.0126C19.1622 29.0126 19.0339 28.9494 18.9606 28.8221C18.9265 28.7634 18.9025 28.6901 18.884 28.6086C18.8628 28.5137 18.8503 28.4056 18.8503 28.2796ZM34.6659 20.2198C33.3585 20.2198 32.2938 21.2767 32.2938 22.575C32.2938 22.7716 32.3252 22.9594 32.3718 23.1417C32.4516 23.4601 32.596 23.7497 32.7925 24.0021C33.2261 24.5624 33.9001 24.9303 34.6659 24.9303C35.2287 24.9303 35.7384 24.7259 36.1458 24.3997C36.5323 24.6742 37.0019 24.8396 37.5126 24.8396C38.8149 24.8396 39.875 23.7868 39.875 22.493C39.875 22.0651 39.7504 21.6688 39.5484 21.323C39.3634 21.0064 39.1134 20.7338 38.8057 20.5331C38.4334 20.2894 37.9901 20.146 37.5126 20.146C36.9558 20.146 36.4498 20.3462 36.0452 20.6674C35.6558 20.3888 35.1812 20.2198 34.6659 20.2198ZM31.8473 31.6304C31.8261 31.5846 31.7855 31.5626 31.7246 31.5626C31.6535 31.5626 31.6065 31.585 31.582 31.6304C31.5686 31.656 31.5626 31.695 31.5626 31.7458V32.3107H31.3117V31.3734H31.552V31.5104C31.5825 31.4618 31.6115 31.427 31.6388 31.4064C31.6867 31.3697 31.7486 31.3509 31.8251 31.3509C31.8966 31.3509 31.9557 31.366 32.0004 31.3981C32.0355 31.427 32.0636 31.465 32.0816 31.5113C32.1144 31.4558 32.154 31.416 32.2025 31.3894C32.2537 31.3633 32.31 31.3509 32.3727 31.3509C32.4142 31.3509 32.4557 31.3592 32.4959 31.3748C32.5365 31.3912 32.5729 31.4192 32.6057 31.4595C32.632 31.4925 32.6509 31.5323 32.6592 31.5804C32.6652 31.6116 32.6679 31.6579 32.6679 31.7193L32.6661 32.3112H32.4133V31.7128C32.4133 31.6776 32.4068 31.6483 32.3953 31.6253C32.3736 31.5823 32.3335 31.5598 32.2744 31.5598C32.2057 31.5598 32.1587 31.5882 32.1324 31.6446C32.1194 31.6739 32.1125 31.7106 32.1125 31.7518V32.3112H31.8634V31.7518C31.8643 31.6964 31.8588 31.6556 31.8473 31.6304ZM31.6715 28.5101C31.7486 28.5101 31.8136 28.494 31.8662 28.4629C31.8957 28.4459 31.9229 28.4217 31.9474 28.3882C31.9423 28.4968 31.9299 28.5783 31.9091 28.6347C31.8717 28.7373 31.8062 28.7882 31.714 28.7882C31.6651 28.7882 31.6263 28.7758 31.5977 28.7492C31.5691 28.7226 31.5511 28.6887 31.5442 28.6471H31.2637C31.2762 28.7675 31.3255 28.8596 31.4113 28.9233C31.4967 28.9865 31.5931 29.0181 31.701 29.0181C31.9262 29.0181 32.0807 28.9086 32.1656 28.6892C32.2103 28.5742 32.232 28.4308 32.232 28.2586C32.232 28.0813 32.2099 27.9379 32.1633 27.8293C32.0821 27.6373 31.9326 27.5416 31.714 27.5416C31.5719 27.5416 31.457 27.5888 31.3684 27.6836C31.2794 27.778 31.2351 27.9021 31.2351 28.0547C31.2351 28.2018 31.2794 28.3145 31.368 28.3928C31.4565 28.4711 31.5576 28.5101 31.6715 28.5101ZM30.181 28.0707C30.1607 28.0171 30.1501 27.9672 30.1501 27.9209C30.1501 27.8169 30.1893 27.729 30.2678 27.6557C30.3462 27.5828 30.4574 27.5466 30.6008 27.5466C30.7438 27.5466 30.855 27.5828 30.9339 27.6557C31.0128 27.7285 31.0515 27.8169 31.0515 27.9209C31.0515 27.9672 31.0409 28.0171 31.0201 28.0707C30.9999 28.1239 30.9542 28.1701 30.885 28.2095C30.9556 28.2485 31.0091 28.3007 31.0451 28.3653C31.0806 28.4304 31.099 28.5023 31.099 28.5825C31.099 28.7025 31.0543 28.8047 30.9648 28.8885C30.8758 28.9723 30.7507 29.0145 30.5902 29.0145C30.4297 29.0145 30.3083 28.9723 30.2258 28.8885C30.1432 28.8047 30.1017 28.7025 30.1017 28.5825C30.1017 28.5027 30.1201 28.4304 30.1566 28.3653C30.193 28.3007 30.2456 28.2517 30.3157 28.2192C30.247 28.1738 30.2018 28.1243 30.181 28.0707ZM30.6935 31.5461C30.7466 31.5461 30.7863 31.5539 30.8139 31.5685C30.8407 31.5827 30.8545 31.6098 30.855 31.6505C30.855 31.6822 30.8375 31.7055 30.8019 31.7202C30.7817 31.7289 30.7489 31.7353 30.7028 31.7417L30.6183 31.7518C30.5224 31.7642 30.449 31.7834 30.3997 31.8118C30.3093 31.8636 30.2641 31.947 30.2641 32.0624C30.2641 32.1513 30.2922 32.22 30.3485 32.2686C30.4043 32.3162 30.4753 32.3409 30.5616 32.3409C30.6294 32.3409 30.6903 32.3254 30.7434 32.2947C30.7881 32.269 30.8273 32.2379 30.8619 32.2008C30.8633 32.2223 30.8661 32.2411 30.8688 32.2576C30.8716 32.2745 30.8762 32.2919 30.8841 32.3112H31.153V32.2754C31.1364 32.2676 31.1244 32.2576 31.1161 32.2466C31.1083 32.2347 31.1032 32.2127 31.1013 32.1811C31.1 32.1384 31.0995 32.1018 31.0995 32.0725V31.6418C31.0995 31.5287 31.0594 31.4517 30.9786 31.4105C30.8974 31.3702 30.8052 31.3496 30.7014 31.3496C30.5418 31.3496 30.4292 31.3912 30.3637 31.4737C30.3226 31.5264 30.2996 31.5937 30.294 31.6757H30.533C30.539 31.6395 30.5501 31.6107 30.5681 31.5896C30.5921 31.5612 30.6345 31.5461 30.6935 31.5461ZM29.8249 31.6258C29.8009 31.5777 29.7548 31.5534 29.6879 31.5534C29.6044 31.5534 29.5476 31.5887 29.5163 31.6592C29.5001 31.6964 29.4923 31.744 29.4923 31.8022V32.3102H29.2446V31.3729H29.484V31.5099C29.5154 31.4623 29.5453 31.4265 29.5735 31.4059C29.6238 31.3679 29.6888 31.3491 29.7663 31.3491C29.8636 31.3491 29.943 31.3743 30.0048 31.4256C30.0671 31.476 30.098 31.5608 30.098 31.678V32.3107H29.8447V31.7399C29.8447 31.6904 29.8387 31.6524 29.8249 31.6258ZM28.542 32.1371C28.4913 32.1371 28.4617 32.133 28.4516 32.1233C28.4414 32.1137 28.4368 32.0899 28.4377 32.0509V31.5543H28.5914V31.3802H28.4377V31.1177H28.1928V31.3802H28.0608V31.5543H28.1928V32.1325C28.1928 32.1911 28.2071 32.2347 28.2348 32.2631C28.2777 32.3066 28.3575 32.3267 28.4742 32.3231L28.5914 32.319V32.1352C28.5872 32.1357 28.5831 32.1359 28.5789 32.1362C28.5748 32.1364 28.5706 32.1366 28.5664 32.1371H28.542ZM28.5 28.3397C28.4599 28.4276 28.4234 28.5362 28.3907 28.6635C28.3584 28.7909 28.3422 28.8963 28.3422 28.9783H28.0498C28.0585 28.7226 28.143 28.4578 28.303 28.1816C28.4068 28.0107 28.4936 27.8916 28.5632 27.8243H27.8486L27.8523 27.5727H28.8649V27.7922C28.8225 27.833 28.7639 27.9067 28.6887 28.0125C28.6135 28.1175 28.5503 28.2265 28.5 28.3397ZM24.4714 28.4272V28.6713L25.0393 28.6718V28.9783H25.3151V28.6718H25.4775V28.4528H25.3156V27.5631H24.9987L24.4714 28.4272ZM25.1163 31.0408H25.3834V32.0821H26.0223V32.3107H25.1163V31.0408ZM25.5979 28.5967C25.6076 28.73 25.657 28.8331 25.7442 28.9059C25.8313 28.9787 25.9434 29.0149 26.0777 29.014C26.2474 29.014 26.3743 28.9627 26.4592 28.8592C26.5436 28.7552 26.5865 28.6379 26.5865 28.5064C26.5865 28.3548 26.5427 28.2402 26.4546 28.161C26.3665 28.0817 26.2631 28.0423 26.1446 28.0423C26.086 28.0423 26.0362 28.0497 25.9956 28.0648C25.9707 28.0735 25.9374 28.0923 25.8936 28.1207L25.9448 27.8096H26.5307V27.5718H25.7418L25.6413 28.3584L25.8941 28.3703C25.9167 28.3282 25.9499 28.2989 25.9942 28.2833C26.0191 28.2746 26.0491 28.2705 26.0832 28.2705C26.1556 28.2705 26.2092 28.2957 26.2433 28.3456C26.277 28.3955 26.2945 28.4574 26.2945 28.5298C26.2945 28.6035 26.2765 28.6654 26.2396 28.7135C26.2032 28.762 26.1496 28.7868 26.08 28.7868C26.0196 28.7868 25.9739 28.7703 25.9425 28.7373C25.9111 28.7043 25.8895 28.6576 25.8784 28.5967H25.5979ZM26.6672 31.5685C26.6396 31.5539 26.5999 31.5461 26.5473 31.5461C26.4882 31.5461 26.4458 31.5612 26.4214 31.5896C26.4034 31.6107 26.3918 31.6395 26.3863 31.6757H26.1478C26.1533 31.5937 26.1764 31.5264 26.2175 31.4737C26.283 31.3912 26.396 31.3496 26.5551 31.3496C26.6589 31.3496 26.7512 31.3702 26.8324 31.4105C26.9131 31.4517 26.9537 31.5287 26.9537 31.6418V32.0725C26.9537 32.1018 26.9542 32.1384 26.9556 32.1811C26.9574 32.2127 26.9625 32.2347 26.9703 32.2466C26.9786 32.2576 26.9906 32.2676 27.0072 32.2754V32.3112H26.7383C26.7309 32.2919 26.7258 32.2745 26.7226 32.2576C26.7198 32.2411 26.7175 32.2223 26.7161 32.2008C26.682 32.2379 26.6419 32.269 26.5976 32.2947C26.5441 32.3254 26.4836 32.3409 26.4158 32.3409C26.3296 32.3409 26.2585 32.3162 26.2022 32.2686C26.146 32.22 26.1183 32.1513 26.1183 32.0624C26.1183 31.947 26.1635 31.8636 26.2539 31.8118C26.3033 31.7834 26.3766 31.7642 26.4726 31.7518L26.5574 31.7417C26.6036 31.7353 26.6363 31.7289 26.6562 31.7202C26.6908 31.7032 26.7087 31.6799 26.7087 31.6492C26.7078 31.6098 26.6944 31.5827 26.6672 31.5685ZM26.7337 28.336C26.7337 28.522 26.7669 28.6727 26.8338 28.79C26.9196 28.9403 27.0529 29.0149 27.2333 29.0149C27.4016 29.0149 27.5257 28.9641 27.6055 28.8624C27.6853 28.7607 27.725 28.6438 27.725 28.5105C27.725 28.3772 27.684 28.2677 27.6028 28.1816C27.5216 28.0959 27.4173 28.0529 27.29 28.0529C27.2305 28.0529 27.1779 28.062 27.1318 28.0813C27.0856 28.1 27.045 28.1303 27.01 28.1715C27.0183 28.0611 27.0326 27.9782 27.0538 27.9218C27.0921 27.8197 27.1576 27.7688 27.2494 27.7688C27.3108 27.7688 27.3569 27.7913 27.3869 27.8357C27.4053 27.8632 27.4141 27.8884 27.4141 27.9113H27.6941C27.684 27.7986 27.6397 27.7084 27.5603 27.6405C27.481 27.5727 27.3749 27.5388 27.2416 27.5388C27.1493 27.5388 27.07 27.5599 27.004 27.6021C26.938 27.6438 26.884 27.6992 26.8435 27.7679C26.7959 27.8485 26.7641 27.9493 26.7475 28.0707C26.7383 28.139 26.7337 28.2274 26.7337 28.336ZM27.6909 32.0038C27.6678 31.9896 27.5815 31.9648 27.4316 31.93C27.3246 31.903 27.2489 31.87 27.2051 31.8306C27.1613 31.7912 27.1392 31.7348 27.1392 31.662C27.1392 31.575 27.1733 31.5003 27.242 31.438C27.3108 31.3757 27.4076 31.3441 27.5317 31.3441C27.6498 31.3441 27.7462 31.3674 27.8205 31.4146C27.8952 31.4618 27.9377 31.5415 27.9487 31.6565H27.7015C27.6983 31.6258 27.689 31.6001 27.6747 31.5818C27.6471 31.5488 27.6009 31.5323 27.5359 31.5323C27.4819 31.5323 27.4436 31.541 27.4206 31.5571C27.3975 31.574 27.386 31.5937 27.386 31.6162C27.386 31.6446 27.3984 31.6647 27.4224 31.6771C27.4468 31.6904 27.5326 31.7128 27.6803 31.7449C27.779 31.7683 27.8528 31.8026 27.9017 31.8498C27.9501 31.897 27.975 31.9552 27.975 32.0262C27.975 32.1192 27.9395 32.1948 27.8699 32.2539C27.8002 32.3125 27.6918 32.3419 27.546 32.3419C27.397 32.3419 27.2868 32.3112 27.2162 32.2484C27.1451 32.1861 27.1096 32.1068 27.1096 32.0102H27.3606C27.3661 32.0537 27.3772 32.0844 27.3947 32.1027C27.4252 32.1362 27.4824 32.1522 27.5659 32.1522C27.6148 32.1522 27.6535 32.1449 27.6821 32.1307C27.7107 32.1169 27.7255 32.0949 27.7255 32.0661C27.7255 32.04 27.7144 32.0184 27.6909 32.0038ZM23.5308 32.1439C23.4773 32.1439 23.4325 32.132 23.3942 32.1087C23.3324 32.0702 23.2987 32.0038 23.2955 31.9108H23.9843C23.9856 31.8297 23.9829 31.7678 23.976 31.7238C23.964 31.651 23.939 31.5859 23.9003 31.5301C23.8574 31.4664 23.803 31.4196 23.737 31.3912C23.671 31.3619 23.5968 31.3473 23.5146 31.3473C23.3758 31.3473 23.2632 31.3908 23.1765 31.4769C23.0893 31.564 23.046 31.6886 23.046 31.8512C23.046 32.0248 23.0944 32.1499 23.1903 32.2269C23.2863 32.3038 23.3975 32.3423 23.5234 32.3423C23.6761 32.3423 23.7947 32.2965 23.8791 32.2053C23.934 32.1476 23.9644 32.0913 23.9713 32.0354H23.719C23.7042 32.0638 23.6876 32.0858 23.6683 32.1009C23.6327 32.1297 23.5871 32.1439 23.5308 32.1439ZM23.1659 27.9356C23.1659 28.0199 23.141 28.0904 23.0907 28.1482C23.0593 28.1843 23.0261 28.2086 22.992 28.2219C23.0178 28.2219 23.0543 28.2434 23.1022 28.2879C23.1742 28.3543 23.2097 28.4441 23.2097 28.5591C23.2097 28.6791 23.1677 28.7854 23.0838 28.877C22.9998 28.9682 22.8753 29.0136 22.711 29.0136C22.5085 29.0136 22.3674 28.9476 22.288 28.8161C22.2465 28.746 22.2234 28.6539 22.2188 28.5412H22.4956C22.4956 28.598 22.5048 28.6452 22.5228 28.6823C22.557 28.751 22.6192 28.7854 22.7097 28.7854C22.7646 28.7854 22.813 28.7666 22.854 28.7291C22.8951 28.691 22.9154 28.6374 22.9154 28.5664C22.9154 28.4725 22.8771 28.4102 22.801 28.3791C22.7576 28.3612 22.6889 28.352 22.5957 28.352V28.1514C22.6871 28.15 22.7512 28.1413 22.7872 28.1243C22.8296 28.1055 22.8522 28.0689 22.866 28.024L22.8703 28.0109C22.8758 27.9947 22.8813 27.9785 22.8813 27.9571C22.8813 27.9031 22.8651 27.8591 22.8337 27.8247C22.8015 27.7908 22.7567 27.7734 22.699 27.7734C22.6326 27.7734 22.5837 27.7945 22.5524 27.8366C22.521 27.8783 22.5058 27.9342 22.5076 28.0048H22.2447C22.247 27.9342 22.2599 27.8669 22.2816 27.8036C22.3046 27.7477 22.3406 27.6969 22.39 27.6493C22.4269 27.6158 22.4707 27.5906 22.521 27.5727C22.5717 27.5549 22.634 27.5462 22.7078 27.5462C22.8448 27.5462 22.9555 27.5814 23.0395 27.6515C23.1161 27.7157 23.1525 27.8018 23.1599 27.9053C23.1605 27.9103 23.1617 27.9146 23.1629 27.9188C23.1644 27.9242 23.1659 27.9294 23.1659 27.9356ZM22.4993 31.5594C22.5588 31.5594 22.5989 31.5818 22.6211 31.6249C22.6326 31.6483 22.6391 31.6776 22.6377 31.7124V32.3107H22.891L22.8928 31.7188C22.8928 31.6574 22.89 31.6111 22.884 31.58C22.8753 31.5319 22.8568 31.492 22.8305 31.459C22.7973 31.4187 22.7609 31.3908 22.7203 31.3743C22.6801 31.3587 22.6391 31.3505 22.5971 31.3505C22.5344 31.3505 22.4776 31.3628 22.4269 31.389C22.3794 31.4155 22.3392 31.4554 22.3065 31.5108C22.2885 31.4645 22.2613 31.4265 22.2253 31.3977C22.181 31.3656 22.1219 31.3505 22.05 31.3505C21.9739 31.3505 21.9116 31.3693 21.8636 31.4059C21.8364 31.4265 21.8073 31.4613 21.7769 31.5099V31.3729H21.5365V32.3102H21.7875V31.7454C21.7875 31.6945 21.7935 31.6556 21.8069 31.6299C21.8318 31.5846 21.8788 31.5621 21.9494 31.5621C22.0103 31.5621 22.0509 31.5841 22.0717 31.6299C22.0832 31.6547 22.0892 31.6954 22.0892 31.7513V32.3107H22.3378V31.7513C22.3378 31.7101 22.3448 31.6734 22.3581 31.6441C22.384 31.5878 22.431 31.5594 22.4993 31.5594ZM34.1321 27.8435C34.0989 27.8036 34.05 27.7835 33.9882 27.7835C33.9024 27.7835 33.8443 27.8156 33.8134 27.8788C33.7958 27.9159 33.7848 27.9741 33.7815 28.0533H33.5075C33.5121 27.9324 33.5347 27.8343 33.5744 27.7597C33.6496 27.6172 33.7829 27.5466 33.9748 27.5466C34.1266 27.5466 34.2475 27.5879 34.3374 27.6717C34.4269 27.7551 34.4717 27.8655 34.4717 28.0034C34.4717 28.1088 34.4398 28.2027 34.3766 28.2847C34.3342 28.3392 34.2664 28.3997 34.1714 28.4666L34.0588 28.5463C33.9882 28.5957 33.9393 28.6324 33.9135 28.6539C33.8876 28.6764 33.8655 28.702 33.8475 28.7318H34.4735V28.9787H33.4918C33.4937 28.8766 33.5163 28.7831 33.5574 28.6988C33.5979 28.6035 33.6925 28.5032 33.8429 28.3969C33.9721 28.3048 34.0569 28.2384 34.0952 28.1981C34.1534 28.1362 34.1829 28.068 34.1829 27.9942C34.1829 27.9333 34.1654 27.8834 34.1321 27.8435ZM33.675 31.5301C33.633 31.4664 33.5776 31.4196 33.5117 31.3912C33.4466 31.3619 33.3724 31.3473 33.2907 31.3477C33.1519 31.3477 33.0388 31.3912 32.9521 31.4774C32.8654 31.5644 32.822 31.689 32.822 31.8517C32.822 32.0253 32.87 32.1504 32.966 32.2273C33.0619 32.3043 33.1735 32.3428 33.299 32.3428C33.4513 32.3428 33.5698 32.297 33.6547 32.2058C33.7091 32.1481 33.7391 32.0917 33.746 32.0358H33.4942C33.4789 32.0642 33.4623 32.0862 33.4429 32.1013C33.4074 32.1302 33.3618 32.1444 33.3055 32.1444C33.252 32.1444 33.2068 32.1325 33.1689 32.1091C33.1067 32.0711 33.0734 32.0042 33.0697 31.9108H33.7585C33.7608 31.8297 33.7576 31.7678 33.7511 31.7238C33.7391 31.651 33.7142 31.5859 33.675 31.5301ZM33.0684 28.9778H32.7791V27.9956H32.4424V27.805C32.5314 27.8014 32.5937 27.7949 32.6287 27.7871C32.6855 27.7748 32.7316 27.75 32.7667 27.7129C32.7916 27.6873 32.8096 27.6534 32.822 27.6108C32.8294 27.5851 32.8326 27.5663 32.8326 27.554H33.0684V28.9778ZM36.1112 28.3516C36.2043 28.3516 36.2731 28.3607 36.3164 28.3786C36.3921 28.4102 36.4308 28.4725 36.4313 28.5651C36.4313 28.6361 36.4106 28.6897 36.3695 28.7277C36.3284 28.7653 36.28 28.784 36.2251 28.784C36.1356 28.784 36.0729 28.7497 36.0392 28.681C36.0203 28.6434 36.0111 28.5967 36.0111 28.5394H35.7347C35.7389 28.6526 35.7615 28.7446 35.8035 28.8143C35.8819 28.9462 36.0235 29.0122 36.226 29.0122C36.3907 29.0122 36.5153 28.9664 36.5992 28.8752C36.6832 28.7836 36.7252 28.6777 36.7252 28.5577C36.7252 28.4432 36.6896 28.3529 36.6177 28.2865C36.5692 28.2425 36.5328 28.2205 36.5065 28.2205C36.5406 28.2077 36.5739 28.1834 36.6057 28.1468C36.655 28.0895 36.6809 28.0185 36.6809 27.9347C36.6809 27.8156 36.6389 27.7212 36.5554 27.6511C36.4705 27.581 36.3598 27.5457 36.2228 27.5457C36.1494 27.5457 36.0872 27.5544 36.0364 27.5723C35.9861 27.5902 35.9423 27.6154 35.9054 27.6488C35.8565 27.6964 35.8196 27.7473 35.797 27.8032C35.7753 27.8664 35.7624 27.9338 35.7606 28.0043H36.0231C36.0212 27.9338 36.0369 27.8779 36.0678 27.8362C36.0992 27.794 36.1476 27.7729 36.2145 27.7729C36.2717 27.7729 36.3169 27.7904 36.3487 27.8243C36.3806 27.8586 36.3967 27.9026 36.3967 27.9567C36.3967 28.041 36.3653 28.0959 36.3026 28.1239C36.2666 28.1408 36.202 28.1495 36.1112 28.1509V28.3516ZM37.8655 28.4524V28.6713H37.7027V28.9778H37.4268V28.6713H36.8599V28.4267L37.3867 27.5627H37.7041V28.4524H37.8655ZM38.4717 28.2705C38.5446 28.2705 38.5981 28.2957 38.6318 28.3456C38.6654 28.3955 38.6834 28.4574 38.6816 28.5289C38.6816 28.6026 38.6631 28.6645 38.6271 28.713C38.5902 28.7616 38.5372 28.7863 38.4671 28.7863C38.4071 28.7863 38.361 28.7698 38.3291 28.7368C38.2973 28.7039 38.2756 28.6571 38.2646 28.5962H37.9841C37.9938 28.73 38.0436 28.8326 38.1308 28.9054C38.218 28.9778 38.3301 29.014 38.4666 29.014C38.6364 29.014 38.7637 28.9632 38.8481 28.8592C38.9325 28.7552 38.975 28.6379 38.975 28.5064C38.975 28.3548 38.9311 28.2402 38.843 28.161C38.7549 28.0817 38.6521 28.0423 38.533 28.0423C38.4744 28.0423 38.4256 28.0497 38.384 28.0648C38.3596 28.0735 38.3264 28.0923 38.2825 28.1207L38.3337 27.8096H38.9201V27.5718H38.1308L38.0302 28.3584L38.2825 28.3703C38.3051 28.3282 38.3388 28.2989 38.3831 28.2833C38.4076 28.2746 38.4375 28.2705 38.4717 28.2705ZM40.083 27.9122H39.8026C39.8026 27.8893 39.7933 27.8641 39.7753 27.8366C39.7454 27.7922 39.6992 27.7697 39.6379 27.7697C39.5461 27.7697 39.4801 27.8206 39.4418 27.9228C39.4211 27.9791 39.4063 28.062 39.3985 28.1724C39.4331 28.1312 39.4736 28.101 39.5198 28.0822C39.5659 28.0629 39.6194 28.0533 39.6785 28.0533C39.8049 28.0533 39.9096 28.0964 39.9912 28.1825C40.0724 28.2686 40.1135 28.3781 40.1135 28.511C40.1135 28.6443 40.0733 28.7611 39.9935 28.8628C39.9137 28.9645 39.7901 29.0154 39.6213 29.0154C39.4409 29.0154 39.3076 28.9403 39.2222 28.7904C39.1549 28.6732 39.1221 28.5224 39.1221 28.3364C39.1221 28.2279 39.1272 28.1395 39.136 28.0712C39.1521 27.9498 39.1844 27.8495 39.2319 27.7684C39.273 27.6996 39.3265 27.6442 39.3929 27.6025C39.4589 27.5604 39.5382 27.5393 39.631 27.5393C39.7638 27.5393 39.8704 27.5732 39.9493 27.641C40.0281 27.7093 40.0724 27.7995 40.083 27.9122ZM21.949 27.6717C21.859 27.5879 21.7386 27.5466 21.5864 27.5466C21.5223 27.5466 21.4722 27.5634 21.4228 27.58L21.4088 27.5847L21.3915 27.5906C21.3671 27.5988 21.3429 27.607 21.322 27.6199C21.2671 27.6547 21.2182 27.6974 21.1855 27.7592C21.1458 27.8339 21.1237 27.9319 21.1191 28.0529H21.3935C21.3963 27.9736 21.4069 27.9154 21.4249 27.8783C21.4558 27.8151 21.5139 27.783 21.5997 27.783C21.662 27.783 21.7105 27.8032 21.7437 27.843C21.7769 27.8829 21.794 27.9333 21.794 27.9933C21.794 28.0671 21.7644 28.1353 21.7058 28.1972C21.668 28.2375 21.5836 28.3039 21.454 28.396C21.3036 28.5023 21.209 28.6026 21.1689 28.6979C21.1673 28.7014 21.1661 28.7051 21.165 28.7087L21.165 28.7087C21.1642 28.7113 21.1634 28.7138 21.1624 28.7162C21.1264 28.7964 21.1052 28.883 21.1029 28.9783H22.085V28.7314H21.459C21.477 28.7016 21.4992 28.6759 21.525 28.6535C21.5513 28.6319 21.5997 28.5953 21.6703 28.5458L21.7833 28.4661L21.787 28.4633C21.8802 28.3978 21.9476 28.3383 21.9886 28.2847C22.0523 28.2027 22.0837 28.1088 22.0837 28.0034C22.0837 27.8655 22.0389 27.7551 21.949 27.6717ZM19.5345 32.3107H19.2858V31.0408H19.5658L20.0733 31.9263V31.0408H20.3224V32.3107H20.0553L19.5354 31.4096V32.3107H19.5345ZM20.3916 27.9979V28.9778L20.5171 28.9783H20.6799V28.9123V27.8815V27.554H20.4442C20.4442 27.5663 20.4405 27.5851 20.4331 27.6108C20.4206 27.6534 20.4026 27.6873 20.3782 27.7129C20.3431 27.75 20.297 27.7748 20.2403 27.7871C20.2047 27.7949 20.1429 27.8014 20.0539 27.805V27.9956H20.3916V27.9979ZM19.4648 24.528V23.6218H20.381V24.5486H19.4671C19.4671 24.5449 19.4665 24.5414 19.4659 24.538C19.4654 24.5347 19.4648 24.5314 19.4648 24.528ZM19.5681 25.0256C19.7167 25.3696 20.0156 25.6307 20.381 25.7393V25.0256H19.5681ZM20.8612 25.0256H21.6533V25.7975H20.8612V25.0256ZM22.9468 25.0256H22.1335V25.7393C22.4988 25.6307 22.7982 25.3696 22.9468 25.0256ZM23.0496 24.528C23.0496 24.5317 23.0492 24.535 23.0487 24.5383C23.0483 24.5417 23.0478 24.545 23.0478 24.5486H22.1344V23.6218H23.0501L23.0496 24.528ZM21.6533 23.1449L21.8936 23.1445V23.144H22.9901C22.8319 22.6213 22.3485 22.2369 21.7714 22.2369H20.8612V24.5482H21.6533V23.1449ZM20.381 23.1445H19.5243C19.6479 22.7363 19.9695 22.4179 20.381 22.2956V23.1445ZM20.8427 31.7504C20.7468 31.7623 20.6734 31.7825 20.6241 31.8104C20.5341 31.8617 20.4889 31.9456 20.4898 32.0629C20.4898 32.1517 20.5175 32.2205 20.5738 32.269C20.6301 32.3167 20.7011 32.3414 20.7874 32.3414C20.8552 32.3414 20.9156 32.3258 20.9691 32.2951C21.0134 32.2695 21.0536 32.2383 21.0877 32.2012C21.0895 32.2227 21.0918 32.2415 21.0946 32.258C21.0974 32.275 21.102 32.2924 21.1098 32.3116H21.3788V32.2759C21.3622 32.2681 21.3506 32.258 21.3423 32.247C21.334 32.2356 21.3294 32.2131 21.3276 32.1815C21.3262 32.1389 21.3257 32.1023 21.3257 32.0729V31.6423C21.3257 31.5291 21.2851 31.4522 21.2044 31.4109C21.1232 31.3706 21.031 31.35 20.9272 31.35C20.768 31.35 20.655 31.3917 20.5895 31.4742C20.5484 31.5268 20.5249 31.5942 20.5198 31.6762H20.7583C20.7643 31.64 20.7754 31.6111 20.7934 31.5901C20.8178 31.5617 20.8603 31.5465 20.9193 31.5465C20.9719 31.5465 21.0116 31.5543 21.0393 31.569C21.0665 31.5841 21.0799 31.6102 21.0799 31.6492C21.0799 31.6799 21.0619 31.7032 21.0263 31.7183C21.006 31.7275 20.9738 31.7339 20.9276 31.7399L20.8427 31.7504Z" fill="#DDA000"/>
<path d="M33.2561 23.8138C33.6021 24.2028 34.1031 24.4529 34.6659 24.4529C35.0686 24.4529 35.4404 24.3251 35.7477 24.1102H35.8086H36.1246H36.167H36.4484H36.542C36.548 24.1056 36.5517 24.0992 36.5582 24.0946C36.6864 23.9925 36.8041 23.8779 36.9046 23.7483H36.7086H36.4373H36.1287H36.1264H35.815H35.5212C35.4653 23.659 35.4141 23.5655 35.3694 23.4684H35.6411H35.9147H36.3183H36.5914H36.8576H37.0859C37.1477 23.3534 37.1985 23.2324 37.2377 23.106H36.9711H36.7206H36.4701H35.7431H35.4916H35.2416C35.2338 23.0771 35.2218 23.0492 35.2153 23.0199C35.1973 22.9457 35.1899 22.8691 35.1807 22.7931H35.4211H35.6614H35.774H36.5351H36.7755H37.0158H37.3101C37.323 22.6996 37.3387 22.6062 37.3387 22.5091C37.3387 22.4825 37.3318 22.4577 37.33 22.4307H37.0232H36.7828H36.668H36.5425H35.636H35.3957H35.1553C35.1586 22.3272 35.1706 22.2259 35.1867 22.1265H35.4271H35.6674H36.4955H36.7469H36.9909H37.2981C37.2737 22.001 37.2368 21.88 37.1911 21.7641H36.8834H36.6334H36.3635H35.7786H35.7689H35.5272H35.2771C35.3136 21.6556 35.3551 21.552 35.4058 21.4512H35.6771H35.9502H36.1712H36.4655H36.5416H36.7363H37.032C36.9983 21.3967 36.9535 21.3509 36.9166 21.2996C36.864 21.2281 36.817 21.1521 36.7547 21.0884H36.4899H36.2828H36.1813H35.9405H35.8086H35.6319C35.6536 21.06 35.678 21.0334 35.7002 21.0059C35.4026 20.8126 35.0483 20.6972 34.6668 20.6972C33.6238 20.6972 32.7755 21.5397 32.7755 22.575C32.7755 22.7079 32.7902 22.8366 32.817 22.9612C32.8843 23.2856 33.0425 23.5747 33.2561 23.8138Z" fill="#DDA000"/>
</svg>
