<svg width="22" height="15" viewBox="0 0 22 15" fill="none" xmlns="http://www.w3.org/2000/svg">
<path d="M0.88868 6.61008H21.1113C21.6021 6.61008 22 7.0002 22 7.48151C22 7.96282 21.6021 8.35294 21.1113 8.35294H0.88868C0.397848 8.35294 0 7.96282 0 7.48151C0 7.00025 0.397848 6.61008 0.88868 6.61008Z" fill="#1D1D1D"/>
<path d="M0.88868 0H21.1113C21.6021 0 22 0.390169 22 0.871433C22 1.3527 21.6021 1.74287 21.1113 1.74287H0.88868C0.397848 1.74287 0 1.3527 0 0.871433C0 0.390169 0.397848 0 0.88868 0Z" fill="#1D1D1D"/>
<path d="M0.484735 13.2202H11.5153C11.783 13.2202 12 13.6103 12 14.0916C12 14.5729 11.783 14.963 11.5153 14.963H0.484735C0.217008 14.963 0 14.5729 0 14.0916C0 13.6103 0.217008 13.2202 0.484735 13.2202Z" fill="#1D1D1D"/>
</svg>
