<svg width="34" height="37" viewBox="0 0 34 37" fill="none" xmlns="http://www.w3.org/2000/svg">
<g filter="url(#filter0_d)">
<path fill-rule="evenodd" clip-rule="evenodd" d="M22.071 19.5834L29.3549 27.1689C29.5422 27.3643 29.5363 27.675 29.3412 27.863C29.2461 27.9543 29.124 28 29.0015 28C28.8725 28 28.7441 27.9499 28.648 27.8493L21.3465 20.2451C19.5642 21.7251 17.2774 22.617 14.7857 22.617C9.10919 22.617 4.49152 17.9929 4.49152 12.3085C4.49152 6.6241 9.10919 2 14.7857 2C20.4622 2 25.0799 6.6241 25.0799 12.3085C25.0799 15.1453 23.9289 17.7175 22.071 19.5834ZM5.47191 12.3085C5.47191 17.4515 9.64988 21.6352 14.7857 21.6352C19.921 21.6352 24.0995 17.4515 24.0995 12.3085C24.0995 7.16554 19.9215 2.98176 14.7857 2.98176C9.64988 2.98176 5.47191 7.16554 5.47191 12.3085Z" fill="#A0A0A0"/>
<path d="M29.3549 27.1689L29.391 27.1343L29.391 27.1343L29.3549 27.1689ZM22.071 19.5834L22.0356 19.5481L22.0011 19.5827L22.035 19.618L22.071 19.5834ZM29.3412 27.863L29.3758 27.8991L29.3759 27.899L29.3412 27.863ZM28.648 27.8493L28.6842 27.8148L28.6841 27.8147L28.648 27.8493ZM21.3465 20.2451L21.3826 20.2104L21.3504 20.1769L21.3146 20.2066L21.3465 20.2451ZM29.391 27.1343L22.1071 19.5487L22.035 19.618L29.3188 27.2036L29.391 27.1343ZM29.3759 27.899C29.5908 27.6919 29.5973 27.3496 29.391 27.1343L29.3188 27.2035C29.487 27.379 29.4817 27.6582 29.3065 27.827L29.3759 27.899ZM29.0015 28.05C29.1365 28.05 29.2711 27.9997 29.3758 27.8991L29.3065 27.827C29.2211 27.909 29.1115 27.95 29.0015 27.95V28.05ZM28.6119 27.8838C28.7179 27.9948 28.8596 28.05 29.0015 28.05V27.95C28.8855 27.95 28.7704 27.905 28.6842 27.8148L28.6119 27.8838ZM21.3105 20.2797L28.612 27.8839L28.6841 27.8147L21.3826 20.2104L21.3105 20.2797ZM14.7857 22.667C17.2895 22.667 19.5875 21.7707 21.3785 20.2835L21.3146 20.2066C19.5408 21.6795 17.2652 22.567 14.7857 22.567V22.667ZM4.44152 12.3085C4.44152 18.0204 9.08151 22.667 14.7857 22.667V22.567C9.13687 22.567 4.54152 17.9654 4.54152 12.3085H4.44152ZM14.7857 1.95C9.08151 1.95 4.44152 6.59655 4.44152 12.3085H4.54152C4.54152 6.65165 9.13687 2.05 14.7857 2.05V1.95ZM25.1299 12.3085C25.1299 6.59655 20.4899 1.95 14.7857 1.95V2.05C20.4345 2.05 25.0299 6.65165 25.0299 12.3085H25.1299ZM22.1065 19.6186C23.9732 17.7438 25.1299 15.1591 25.1299 12.3085H25.0299C25.0299 15.1315 23.8845 17.6912 22.0356 19.5481L22.1065 19.6186ZM14.7857 21.5852C9.67756 21.5852 5.52191 17.4239 5.52191 12.3085H5.42191C5.42191 17.479 9.6222 21.6852 14.7857 21.6852V21.5852ZM24.0495 12.3085C24.0495 17.4239 19.8933 21.5852 14.7857 21.5852V21.6852C19.9487 21.6852 24.1495 17.479 24.1495 12.3085H24.0495ZM14.7857 3.03176C19.8938 3.03176 24.0495 7.19309 24.0495 12.3085H24.1495C24.1495 7.13799 19.9492 2.93176 14.7857 2.93176V3.03176ZM5.52191 12.3085C5.52191 7.19309 9.67756 3.03176 14.7857 3.03176V2.93176C9.6222 2.93176 5.42191 7.13799 5.42191 12.3085H5.52191Z" fill="#A0A0A0"/>
</g>
<defs>
<filter id="filter0_d" x="-1.50848" y="0" width="38" height="38" filterUnits="userSpaceOnUse" color-interpolation-filters="sRGB">
<feFlood flood-opacity="0" result="BackgroundImageFix"/>
<feColorMatrix in="SourceAlpha" type="matrix" values="0 0 0 0 0 0 0 0 0 0 0 0 0 0 0 0 0 0 127 0" result="hardAlpha"/>
<feOffset dy="4"/>
<feGaussianBlur stdDeviation="2"/>
<feComposite in2="hardAlpha" operator="out"/>
<feColorMatrix type="matrix" values="0 0 0 0 0 0 0 0 0 0 0 0 0 0 0 0 0 0 0.25 0"/>
<feBlend mode="normal" in2="BackgroundImageFix" result="effect1_dropShadow"/>
<feBlend mode="normal" in="SourceGraphic" in2="effect1_dropShadow" result="shape"/>
</filter>
</defs>
</svg>
