<svg width="62" height="62" viewBox="0 0 62 62" fill="none" xmlns="http://www.w3.org/2000/svg">
<circle cx="31" cy="31" r="31" fill="#A8BDFF"/>
<path fill-rule="evenodd" clip-rule="evenodd" d="M41.3212 28.3077H44.041C44.5708 28.3077 45 28.7368 45 29.2662V32.7333C45 33.2632 44.5708 33.6923 44.041 33.6923H41.3212C39.911 33.6923 39.2045 35.3976 40.2018 36.3943L42.1252 38.3177C42.4994 38.6919 42.4994 39.2993 42.1252 39.6735L39.6735 42.1252C39.2993 42.4994 38.6919 42.4994 38.3177 42.1252L36.3943 40.2018C35.3971 39.2045 33.6923 39.911 33.6923 41.3212V44.041C33.6923 44.5708 33.2632 45 32.7338 45H29.2667C28.7368 45 28.3077 44.5708 28.3077 44.041V41.3212C28.3077 39.911 26.6029 39.2045 25.6057 40.2018L23.6823 42.1252C23.3081 42.4994 22.7007 42.4994 22.3265 42.1252L19.8748 39.6735C19.5006 39.2993 19.5006 38.6925 19.8748 38.3177L21.7982 36.3943C22.7949 35.3976 22.089 33.6923 20.6788 33.6923H17.959C17.4292 33.6923 17 33.2632 17 32.7338V29.2667C17 28.7368 17.4292 28.3077 17.959 28.3077H20.6788C22.089 28.3077 22.7955 26.6024 21.7982 25.6057L19.8748 23.6823C19.5006 23.3081 19.5006 22.7007 19.8748 22.3265L22.3265 19.8748C22.7007 19.5006 23.3081 19.5006 23.6823 19.8748L25.6057 21.7988C26.6029 22.7955 28.3077 22.0895 28.3077 20.6793V17.959C28.3077 17.4292 28.7368 17 29.2662 17H32.7333C33.2632 17 33.6923 17.4292 33.6923 17.959V20.6788C33.6923 22.089 35.3971 22.7949 36.3943 21.7982L38.3177 19.8748C38.6919 19.5006 39.2993 19.5006 39.6735 19.8748L42.1252 22.3265C42.4994 22.7007 42.4994 23.3081 42.1252 23.6823L40.2018 25.6057C39.2051 26.6024 39.911 28.3077 41.3212 28.3077ZM26.6923 31C26.6923 33.3789 28.6211 35.3077 31 35.3077C33.3789 35.3077 35.3077 33.3789 35.3077 31C35.3077 28.6211 33.3789 26.6923 31 26.6923C28.6211 26.6923 26.6923 28.6211 26.6923 31Z" fill="#3F65DD"/>
<path d="M40.2018 36.3943L40.5553 36.0408L40.5552 36.0407L40.2018 36.3943ZM42.1252 38.3177L42.4787 37.9641L42.4787 37.9641L42.1252 38.3177ZM38.3177 42.1252L37.9641 42.4787L37.9641 42.4787L38.3177 42.1252ZM36.3943 40.2018L36.7479 39.8482L36.7479 39.8482L36.3943 40.2018ZM25.6057 40.2018L25.2521 39.8482L25.2521 39.8482L25.6057 40.2018ZM23.6823 42.1252L23.3288 41.7716L23.3288 41.7716L23.6823 42.1252ZM22.3265 42.1252L22.68 41.7716L22.68 41.7716L22.3265 42.1252ZM19.8748 39.6735L19.5213 40.0271L19.5213 40.0271L19.8748 39.6735ZM19.8748 38.3177L19.5213 37.9641L19.521 37.9644L19.8748 38.3177ZM21.7982 36.3943L22.1518 36.7479L22.1518 36.7479L21.7982 36.3943ZM21.7982 25.6057L21.4447 25.9592L21.4448 25.9593L21.7982 25.6057ZM19.8748 23.6823L19.5213 24.0359L19.5213 24.0359L19.8748 23.6823ZM23.6823 19.8748L24.0359 19.5213L24.0359 19.5213L23.6823 19.8748ZM25.6057 21.7988L25.2521 22.1523L25.2522 22.1524L25.6057 21.7988ZM36.3943 21.7982L36.7478 22.1519L36.7479 22.1518L36.3943 21.7982ZM38.3177 19.8748L37.9641 19.5213L37.9641 19.5213L38.3177 19.8748ZM39.6735 19.8748L40.0271 19.5213L40.0271 19.5213L39.6735 19.8748ZM42.1252 22.3265L41.7716 22.68L41.7716 22.68L42.1252 22.3265ZM42.1252 23.6823L41.7716 23.3288L41.7716 23.3288L42.1252 23.6823ZM40.2018 25.6057L39.8482 25.2521L39.8482 25.2521L40.2018 25.6057ZM44.041 27.8077H41.3212V28.8077H44.041V27.8077ZM45.5 29.2662C45.5 28.4605 44.8468 27.8077 44.041 27.8077V28.8077C44.2949 28.8077 44.5 29.0132 44.5 29.2662H45.5ZM45.5 32.7333V29.2662H44.5V32.7333H45.5ZM44.041 34.1923C44.847 34.1923 45.5 33.5393 45.5 32.7333H44.5C44.5 32.987 44.2947 33.1923 44.041 33.1923V34.1923ZM41.3212 34.1923H44.041V33.1923H41.3212V34.1923ZM40.5552 36.0407C39.8734 35.3592 40.3562 34.1923 41.3212 34.1923V33.1923C39.4658 33.1923 38.5357 35.4361 39.8483 36.748L40.5552 36.0407ZM42.4787 37.9641L40.5553 36.0408L39.8482 36.7479L41.7716 38.6712L42.4787 37.9641ZM42.4787 40.0271C43.0482 39.4576 43.0482 38.5336 42.4787 37.9641L41.7716 38.6712C41.9506 38.8502 41.9506 39.141 41.7716 39.32L42.4787 40.0271ZM40.0271 42.4787L42.4787 40.0271L41.7716 39.32L39.32 41.7716L40.0271 42.4787ZM37.9641 42.4787C38.5336 43.0482 39.4576 43.0482 40.0271 42.4787L39.32 41.7716C39.141 41.9506 38.8502 41.9506 38.6712 41.7716L37.9641 42.4787ZM36.0408 40.5553L37.9641 42.4787L38.6712 41.7716L36.7479 39.8482L36.0408 40.5553ZM34.1923 41.3212C34.1923 40.3563 35.3586 39.8732 36.0408 40.5553L36.7479 39.8482C35.4355 38.5359 33.1923 39.4657 33.1923 41.3212H34.1923ZM34.1923 44.041V41.3212H33.1923V44.041H34.1923ZM32.7338 45.5C33.5395 45.5 34.1923 44.8468 34.1923 44.041H33.1923C33.1923 44.2949 32.9868 44.5 32.7338 44.5V45.5ZM29.2667 45.5H32.7338V44.5H29.2667V45.5ZM27.8077 44.041C27.8077 44.847 28.4607 45.5 29.2667 45.5V44.5C29.013 44.5 28.8077 44.2947 28.8077 44.041H27.8077ZM27.8077 41.3212V44.041H28.8077V41.3212H27.8077ZM25.9592 40.5553C26.6414 39.8732 27.8077 40.3563 27.8077 41.3212H28.8077C28.8077 39.4657 26.5645 38.5359 25.2521 39.8482L25.9592 40.5553ZM24.0359 42.4787L25.9592 40.5553L25.2521 39.8482L23.3288 41.7716L24.0359 42.4787ZM21.9729 42.4787C22.5424 43.0482 23.4664 43.0482 24.0359 42.4787L23.3288 41.7716C23.1498 41.9506 22.859 41.9506 22.68 41.7716L21.9729 42.4787ZM19.5213 40.0271L21.9729 42.4787L22.68 41.7716L20.2284 39.32L19.5213 40.0271ZM19.521 37.9644C18.952 38.5342 18.9517 39.4575 19.5213 40.0271L20.2284 39.32C20.0496 39.1412 20.0492 38.8507 20.2287 38.671L19.521 37.9644ZM21.4447 36.0408L19.5213 37.9641L20.2284 38.6712L22.1518 36.7479L21.4447 36.0408ZM20.6788 34.1923C21.6435 34.1923 22.1264 35.359 21.4447 36.0408L22.1518 36.7479C23.4634 35.4362 22.5345 33.1923 20.6788 33.1923V34.1923ZM17.959 34.1923H20.6788V33.1923H17.959V34.1923ZM16.5 32.7338C16.5 33.5395 17.1532 34.1923 17.959 34.1923V33.1923C17.7051 33.1923 17.5 32.9868 17.5 32.7338H16.5ZM16.5 29.2667V32.7338H17.5V29.2667H16.5ZM17.959 27.8077C17.153 27.8077 16.5 28.4607 16.5 29.2667H17.5C17.5 29.013 17.7053 28.8077 17.959 28.8077V27.8077ZM20.6788 27.8077H17.959V28.8077H20.6788V27.8077ZM21.4448 25.9593C22.1266 26.6408 21.6438 27.8077 20.6788 27.8077V28.8077C22.5342 28.8077 23.4643 26.5639 22.1517 25.252L21.4448 25.9593ZM19.5213 24.0359L21.4447 25.9592L22.1518 25.2521L20.2284 23.3288L19.5213 24.0359ZM19.5213 21.9729C18.9518 22.5424 18.9518 23.4664 19.5213 24.0359L20.2284 23.3288C20.0494 23.1498 20.0494 22.859 20.2284 22.68L19.5213 21.9729ZM21.9729 19.5213L19.5213 21.9729L20.2284 22.68L22.68 20.2284L21.9729 19.5213ZM24.0359 19.5213C23.4664 18.9518 22.5424 18.9518 21.9729 19.5213L22.68 20.2284C22.859 20.0494 23.1498 20.0494 23.3288 20.2284L24.0359 19.5213ZM25.9593 21.4453L24.0359 19.5213L23.3287 20.2284L25.2521 22.1523L25.9593 21.4453ZM27.8077 20.6793C27.8077 21.6439 26.6415 22.1271 25.9591 21.4451L25.2522 22.1524C26.5643 23.4638 28.8077 22.5351 28.8077 20.6793H27.8077ZM27.8077 17.959V20.6793H28.8077V17.959H27.8077ZM29.2662 16.5C28.4605 16.5 27.8077 17.1532 27.8077 17.959H28.8077C28.8077 17.7051 29.0132 17.5 29.2662 17.5V16.5ZM32.7333 16.5H29.2662V17.5H32.7333V16.5ZM34.1923 17.959C34.1923 17.153 33.5393 16.5 32.7333 16.5V17.5C32.987 17.5 33.1923 17.7053 33.1923 17.959H34.1923ZM34.1923 20.6788V17.959H33.1923V20.6788H34.1923ZM36.0409 21.4446C35.3585 22.1266 34.1923 21.6434 34.1923 20.6788H33.1923C33.1923 22.5346 35.4357 23.4633 36.7478 22.1519L36.0409 21.4446ZM37.9641 19.5213L36.0408 21.4447L36.7479 22.1518L38.6712 20.2284L37.9641 19.5213ZM40.0271 19.5213C39.4576 18.9518 38.5336 18.9518 37.9641 19.5213L38.6712 20.2284C38.8502 20.0494 39.141 20.0494 39.32 20.2284L40.0271 19.5213ZM42.4787 21.9729L40.0271 19.5213L39.32 20.2284L41.7716 22.68L42.4787 21.9729ZM42.4787 24.0359C43.0482 23.4664 43.0482 22.5424 42.4787 21.9729L41.7716 22.68C41.9506 22.859 41.9506 23.1498 41.7716 23.3288L42.4787 24.0359ZM40.5553 25.9592L42.4787 24.0359L41.7716 23.3288L39.8482 25.2521L40.5553 25.9592ZM41.3212 27.8077C40.3565 27.8077 39.8736 26.641 40.5553 25.9592L39.8482 25.2521C38.5366 26.5638 39.4655 28.8077 41.3212 28.8077V27.8077ZM31 34.8077C28.8972 34.8077 27.1923 33.1028 27.1923 31H26.1923C26.1923 33.6551 28.3449 35.8077 31 35.8077V34.8077ZM34.8077 31C34.8077 33.1028 33.1028 34.8077 31 34.8077V35.8077C33.6551 35.8077 35.8077 33.6551 35.8077 31H34.8077ZM31 27.1923C33.1028 27.1923 34.8077 28.8972 34.8077 31H35.8077C35.8077 28.3449 33.6551 26.1923 31 26.1923V27.1923ZM27.1923 31C27.1923 28.8972 28.8972 27.1923 31 27.1923V26.1923C28.3449 26.1923 26.1923 28.3449 26.1923 31H27.1923Z" fill="#A8BDFF"/>
</svg>
