<svg width="24" height="15" viewBox="0 0 24 15" fill="none" xmlns="http://www.w3.org/2000/svg">
<path fill-rule="evenodd" clip-rule="evenodd" d="M22.3232 5.00328C22.4882 5.49462 22.626 6.0322 22.733 6.60086C22.8391 7.16531 22.9111 7.69982 22.9467 8.18982C22.9819 8.66869 22.9998 9.16848 23 9.67517C23 10.9882 22.5624 12.0513 21.6994 12.8345C20.847 13.6078 19.7195 14 18.3485 14H5.65152C4.28006 14 3.15264 13.6078 2.30044 12.8345C1.43757 12.0507 1 10.988 1 9.67536C1 9.1704 1.0177 8.67061 1.05271 8.1904C1.08832 7.69924 1.16014 7.16454 1.26636 6.60086C1.37339 6.0322 1.5112 5.49481 1.67597 5.00347C1.84657 4.49524 2.07833 3.99392 2.36461 3.51332C2.66156 3.01468 3.01081 2.58051 3.40271 2.22289C3.81292 1.84858 4.31487 1.54794 4.89467 1.32903C5.47267 1.1107 6.11323 1 6.79886 1C7.06804 1 7.32836 1.10533 7.83071 1.41748C8.14476 1.6126 8.50689 1.83515 8.90704 2.079C9.25186 2.28889 9.72001 2.48554 10.2974 2.6634C10.8617 2.83741 11.4343 2.92566 11.9992 2.92566C12.5645 2.92566 13.1371 2.83741 13.701 2.6634C14.279 2.48535 14.7469 2.2887 15.0924 2.07881C15.4963 1.83266 15.8583 1.6101 16.1677 1.41767C16.6704 1.10552 16.9308 1.00019 17.1999 1.00019C17.8854 1.00019 18.5261 1.1107 19.1043 1.32884C19.6845 1.54813 20.1863 1.84877 20.5961 2.2227C20.988 2.58013 21.3372 3.01449 21.6344 3.51332C21.9211 3.99392 22.1526 4.49543 22.3232 5.00328ZM18.3483 12.5264C19.3232 12.5264 20.0708 12.2779 20.6339 11.7668C21.1861 11.2657 21.4545 10.5815 21.4547 9.67536C21.4545 9.20282 21.438 8.73776 21.4052 8.29285V8.29246C21.3734 7.85503 21.3083 7.37347 21.2121 6.86102C21.1171 6.35625 20.9958 5.88236 20.8516 5.4526C20.7136 5.04146 20.5249 4.63376 20.2909 4.24141C20.0678 3.86691 19.8111 3.54593 19.5278 3.2875C19.2629 3.04577 18.9289 2.84758 18.5356 2.69908C18.1714 2.56171 17.7624 2.4865 17.3182 2.47518C17.2641 2.50262 17.1677 2.55519 17.0116 2.65208C16.694 2.84969 16.3381 3.0684 15.9238 3.32089C15.467 3.5987 14.8793 3.84907 14.1764 4.06567C13.4588 4.28688 12.7263 4.39931 11.9994 4.39931C11.2725 4.39931 10.5402 4.28688 9.82221 4.06548C9.11989 3.84926 8.53203 3.5987 8.07575 3.32127C7.67098 3.07474 7.30483 2.8495 6.98716 2.65208C6.83104 2.555 6.73468 2.50262 6.68056 2.47518C6.23655 2.4865 5.82755 2.56171 5.46361 2.69908C5.0701 2.84758 4.73614 3.04557 4.47119 3.2875C4.18792 3.54613 3.93121 3.8671 3.7081 4.24122C3.47433 4.63376 3.28582 5.04126 3.14761 5.4528C3.00357 5.88198 2.88246 6.35606 2.7873 6.86121C2.69093 7.3727 2.62595 7.85407 2.59416 8.29227C2.56157 8.73891 2.54527 9.20416 2.54527 9.67536C2.54527 10.5813 2.81365 11.2657 3.36589 11.767C3.9288 12.2779 4.67639 12.5264 5.65152 12.5264H18.3483Z" fill="#FD3E75"/>
<path d="M22.733 6.60086L22.7822 6.59163L22.7822 6.59162L22.733 6.60086ZM22.3232 5.00328L22.3706 4.98736L22.3706 4.98735L22.3232 5.00328ZM22.9467 8.18982L22.8968 8.19344L22.8968 8.19349L22.9467 8.18982ZM23 9.67517H23.05V9.67515L23 9.67517ZM21.6994 12.8345L21.733 12.8715L21.733 12.8715L21.6994 12.8345ZM2.30044 12.8345L2.26682 12.8715L2.26684 12.8715L2.30044 12.8345ZM1.05271 8.1904L1.10258 8.19403L1.10258 8.19401L1.05271 8.1904ZM1.26636 6.60086L1.3155 6.61012L1.3155 6.61011L1.26636 6.60086ZM1.67597 5.00347L1.62857 4.98756L1.62856 4.98757L1.67597 5.00347ZM2.36461 3.51332L2.40757 3.53891L2.40757 3.5389L2.36461 3.51332ZM3.40271 2.22289L3.36901 2.18596L3.36901 2.18596L3.40271 2.22289ZM4.89467 1.32903L4.91233 1.37581L4.91234 1.37581L4.89467 1.32903ZM7.83071 1.41748L7.80433 1.45995L7.80433 1.45995L7.83071 1.41748ZM8.90704 2.079L8.88102 2.1217L8.88104 2.12171L8.90704 2.079ZM10.2974 2.6634L10.3121 2.61562L10.3121 2.61561L10.2974 2.6634ZM13.701 2.6634L13.6863 2.61561L13.6862 2.61562L13.701 2.6634ZM15.0924 2.07881L15.1183 2.12154L15.1184 2.12151L15.0924 2.07881ZM16.1677 1.41767L16.1413 1.37519L16.1413 1.37521L16.1677 1.41767ZM19.1043 1.32884L19.122 1.28207L19.122 1.28206L19.1043 1.32884ZM20.5961 2.2227L20.5624 2.25964L20.5624 2.25964L20.5961 2.2227ZM21.6344 3.51332L21.5914 3.53891L21.5914 3.53893L21.6344 3.51332ZM20.6339 11.7668L20.6003 11.7298L20.6003 11.7298L20.6339 11.7668ZM21.4547 9.67536L21.5047 9.67538V9.67534L21.4547 9.67536ZM21.4052 8.29285H21.3551L21.3554 8.29652L21.4052 8.29285ZM21.4052 8.29246H21.4554L21.4551 8.28884L21.4052 8.29246ZM21.2121 6.86102L21.2612 6.8518L21.2612 6.85178L21.2121 6.86102ZM20.8516 5.4526L20.899 5.43669V5.43669L20.8516 5.4526ZM20.2909 4.24141L20.2479 4.267L20.2479 4.26702L20.2909 4.24141ZM19.5278 3.2875L19.4941 3.32444L19.4941 3.32444L19.5278 3.2875ZM18.5356 2.69908L18.5532 2.6523L18.5532 2.6523L18.5356 2.69908ZM17.3182 2.47518L17.3195 2.4252L17.3069 2.42488L17.2956 2.43059L17.3182 2.47518ZM17.0116 2.65208L16.9853 2.60959L16.9852 2.60962L17.0116 2.65208ZM15.9238 3.32089L15.9498 3.36361L15.9499 3.36358L15.9238 3.32089ZM14.1764 4.06567L14.1617 4.01789L14.1617 4.01789L14.1764 4.06567ZM9.82221 4.06548L9.83694 4.0177L9.83692 4.0177L9.82221 4.06548ZM8.07575 3.32127L8.04975 3.36397L8.04978 3.36399L8.07575 3.32127ZM6.98716 2.65208L6.96076 2.69454L6.96077 2.69454L6.98716 2.65208ZM6.68056 2.47518L6.70317 2.43059L6.69191 2.42488L6.67929 2.4252L6.68056 2.47518ZM5.46361 2.69908L5.48127 2.74586L5.48127 2.74586L5.46361 2.69908ZM4.47119 3.2875L4.5049 3.32443L4.5049 3.32443L4.47119 3.2875ZM3.7081 4.24122L3.66516 4.21561L3.66514 4.21564L3.7081 4.24122ZM3.14761 5.4528L3.10021 5.43688L3.10021 5.43689L3.14761 5.4528ZM2.7873 6.86121L2.83643 6.87047L2.83643 6.87047L2.7873 6.86121ZM2.59416 8.29227L2.64403 8.29591L2.64403 8.29589L2.59416 8.29227ZM3.36589 11.767L3.33229 11.804L3.33229 11.804L3.36589 11.767ZM22.7822 6.59162C22.6748 6.02096 22.5364 5.48113 22.3706 4.98736L22.2758 5.01919C22.44 5.50811 22.5772 6.04345 22.6839 6.61011L22.7822 6.59162ZM22.9966 8.1862C22.9608 7.69402 22.8885 7.15761 22.7822 6.59163L22.6839 6.6101C22.7896 7.173 22.8614 7.70562 22.8968 8.19344L22.9966 8.1862ZM23.05 9.67515C23.0498 9.16731 23.0319 8.66631 22.9966 8.18615L22.8968 8.19349C22.9319 8.67108 22.9498 9.16965 22.95 9.67519L23.05 9.67515ZM21.733 12.8715C22.6079 12.0776 23.05 11.0004 23.05 9.67517H22.95C22.95 10.9761 22.517 12.025 21.6658 12.7974L21.733 12.8715ZM18.3485 14.05C19.7294 14.05 20.8696 13.6548 21.733 12.8715L21.6658 12.7974C20.8243 13.5609 19.7096 13.95 18.3485 13.95V14.05ZM5.65152 14.05H18.3485V13.95H5.65152V14.05ZM2.26684 12.8715C3.12995 13.6548 4.27016 14.05 5.65152 14.05V13.95C4.28997 13.95 3.17534 13.5609 2.33404 12.7974L2.26684 12.8715ZM0.95 9.67536C0.95 11.0002 1.39215 12.077 2.26682 12.8715L2.33405 12.7975C1.48299 12.0244 1.05 10.9759 1.05 9.67536H0.95ZM1.00284 8.18676C0.967744 8.66825 0.95 9.16925 0.95 9.67536H1.05C1.05 9.17155 1.06766 8.67298 1.10258 8.19403L1.00284 8.18676ZM1.21723 6.59161C1.11071 7.15686 1.03861 7.69346 1.00284 8.18678L1.10258 8.19401C1.13803 7.70503 1.20957 7.17222 1.3155 6.61012L1.21723 6.59161ZM1.62856 4.98757C1.46299 5.48132 1.32463 6.02096 1.21723 6.59162L1.3155 6.61011C1.42215 6.04345 1.55941 5.5083 1.72338 5.01936L1.62856 4.98757ZM2.32166 3.48773C2.03364 3.97125 1.80035 4.4758 1.62857 4.98756L1.72337 5.01938C1.89279 4.51468 2.12303 4.01659 2.40757 3.53891L2.32166 3.48773ZM3.36901 2.18596C2.97316 2.54718 2.62088 2.98528 2.32165 3.48774L2.40757 3.5389C2.70224 3.04409 3.04846 2.61384 3.43641 2.25983L3.36901 2.18596ZM4.87701 1.28226C4.29198 1.50314 3.78441 1.80691 3.36901 2.18596L3.43641 2.25983C3.84143 1.89025 4.33776 1.59274 4.91233 1.37581L4.87701 1.28226ZM6.79886 0.95C6.10785 0.95 5.46123 1.06157 4.877 1.28226L4.91234 1.37581C5.4841 1.15983 6.11861 1.05 6.79886 1.05V0.95ZM7.8571 1.37501C7.35426 1.06255 7.08335 0.95 6.79886 0.95V1.05C7.05272 1.05 7.30247 1.14811 7.80433 1.45995L7.8571 1.37501ZM8.93305 2.0363C8.533 1.79251 8.171 1.57003 7.8571 1.37501L7.80433 1.45995C8.11852 1.65516 8.48078 1.87779 8.88102 2.1217L8.93305 2.0363ZM10.3121 2.61561C9.73692 2.43844 9.27303 2.24325 8.93303 2.03629L8.88104 2.12171C9.23069 2.33454 9.7031 2.53265 10.2827 2.71118L10.3121 2.61561ZM11.9992 2.87566C11.4395 2.87566 10.8719 2.78822 10.3121 2.61562L10.2827 2.71118C10.8515 2.88659 11.4291 2.97566 11.9992 2.97566V2.87566ZM13.6862 2.61562C13.1269 2.78822 12.5593 2.87566 11.9992 2.87566V2.97566C12.5697 2.97566 13.1473 2.88659 13.7157 2.71117L13.6862 2.61562ZM15.0664 2.03608C14.7258 2.24305 14.2621 2.43825 13.6863 2.61561L13.7157 2.71118C14.2959 2.53246 14.7681 2.33435 15.1183 2.12154L15.0664 2.03608ZM16.1413 1.37521C15.832 1.56755 15.4702 1.79002 15.0663 2.03611L15.1184 2.12151C15.5224 1.8753 15.8845 1.65266 16.1941 1.46013L16.1413 1.37521ZM17.1999 0.950192C16.9154 0.950192 16.6445 1.06274 16.1413 1.37519L16.194 1.46015C16.6963 1.1483 16.9461 1.05019 17.1999 1.05019V0.950192ZM19.122 1.28206C18.5375 1.06157 17.8907 0.950192 17.1999 0.950192V1.05019C17.88 1.05019 18.5147 1.15983 19.0867 1.37562L19.122 1.28206ZM20.6298 2.18577C20.2148 1.8071 19.7074 1.50334 19.122 1.28207L19.0866 1.37561C19.6616 1.59293 20.1578 1.89045 20.5624 2.25964L20.6298 2.18577ZM21.6773 3.48773C21.3779 2.98509 21.0256 2.5468 20.6298 2.18576L20.5624 2.25964C20.9503 2.61346 21.2965 3.04389 21.5914 3.53891L21.6773 3.48773ZM22.3706 4.98735C22.1988 4.47601 21.9658 3.97125 21.6773 3.4877L21.5914 3.53893C21.8764 4.01659 22.1064 4.51486 22.2758 5.0192L22.3706 4.98735ZM20.6003 11.7298C20.0488 12.2304 19.3144 12.4764 18.3483 12.4764V12.5764C19.332 12.5764 20.0928 12.3254 20.6675 11.8038L20.6003 11.7298ZM21.4047 9.67535C21.4045 10.5707 21.1399 11.2401 20.6003 11.7298L20.6675 11.8038C21.2324 11.2912 21.5045 10.5923 21.5047 9.67538L21.4047 9.67535ZM21.3554 8.29652C21.3881 8.74014 21.4045 9.20397 21.4047 9.67539L21.5047 9.67534C21.5045 9.20167 21.488 8.73539 21.4551 8.28917L21.3554 8.29652ZM21.3552 8.29246V8.29285H21.4552V8.29246H21.3552ZM21.163 6.87024C21.2588 7.3812 21.3237 7.86086 21.3554 8.29609L21.4551 8.28884C21.4232 7.8492 21.3577 7.36574 21.2612 6.8518L21.163 6.87024ZM20.8042 5.46851C20.9476 5.89583 21.0684 6.36746 21.163 6.87027L21.2612 6.85178C21.1659 6.34504 21.0441 5.8689 20.899 5.43669L20.8042 5.46851ZM20.2479 4.26702C20.4802 4.65647 20.6674 5.06092 20.8042 5.46852L20.899 5.43669C20.7598 5.02199 20.5695 4.61106 20.3338 4.21581L20.2479 4.26702ZM19.4941 3.32444C19.7733 3.57914 20.027 3.89615 20.2479 4.267L20.3338 4.21582C20.1086 3.83768 19.8489 3.51273 19.5615 3.25057L19.4941 3.32444ZM18.5179 2.74586C18.9063 2.89249 19.2345 3.08762 19.4941 3.32444L19.5615 3.25057C19.2912 3.00391 18.9515 2.80266 18.5532 2.6523L18.5179 2.74586ZM17.317 2.52517C17.7564 2.53636 18.1597 2.61073 18.5179 2.74586L18.5532 2.6523C18.1832 2.51269 17.7685 2.43664 17.3195 2.4252L17.317 2.52517ZM17.038 2.69456C17.1932 2.59823 17.2883 2.54642 17.3408 2.51978L17.2956 2.43059C17.2399 2.45882 17.1423 2.51215 16.9853 2.60959L17.038 2.69456ZM15.9499 3.36358C16.3642 3.11105 16.7202 2.89225 17.038 2.69453L16.9852 2.60962C16.6677 2.80713 16.312 3.02576 15.8978 3.27819L15.9499 3.36358ZM14.1911 4.11346C14.8966 3.89606 15.4884 3.6442 15.9498 3.36361L15.8979 3.27816C15.4456 3.55319 14.862 3.80208 14.1617 4.01789L14.1911 4.11346ZM11.9994 4.44931C12.7314 4.44931 13.4689 4.33608 14.1911 4.11346L14.1617 4.01789C13.4486 4.23768 12.7211 4.34931 11.9994 4.34931V4.44931ZM9.80748 4.11326C10.5301 4.33608 11.2674 4.44931 11.9994 4.44931V4.34931C11.2777 4.34931 10.5504 4.23769 9.83694 4.0177L9.80748 4.11326ZM8.04978 3.36399C8.51063 3.6442 9.10258 3.89625 9.8075 4.11327L9.83692 4.0177C9.13719 3.80227 8.55344 3.55319 8.10173 3.27855L8.04978 3.36399ZM6.96077 2.69454C7.27858 2.89205 7.64486 3.11737 8.04975 3.36397L8.10176 3.27857C7.6971 3.0321 7.33108 2.80694 7.01355 2.60961L6.96077 2.69454ZM6.65795 2.51978C6.71052 2.54643 6.8056 2.59806 6.96076 2.69454L7.01356 2.60962C6.85648 2.51194 6.75884 2.45881 6.70317 2.43059L6.65795 2.51978ZM5.48127 2.74586C5.83928 2.61073 6.24264 2.53636 6.68183 2.52517L6.67929 2.4252C6.23046 2.43664 5.81583 2.51269 5.44596 2.6523L5.48127 2.74586ZM4.5049 3.32443C4.76444 3.08744 5.09268 2.8925 5.48127 2.74586L5.44596 2.6523C5.04753 2.80266 4.70784 3.00371 4.43747 3.25058L4.5049 3.32443ZM3.75105 4.26683C3.97199 3.89635 4.22571 3.57933 4.5049 3.32443L4.43747 3.25058C4.15014 3.51292 3.89044 3.83786 3.66516 4.21561L3.75105 4.26683ZM3.19501 5.46871C3.33203 5.06072 3.51901 4.65645 3.75106 4.26681L3.66514 4.21564C3.42965 4.61107 3.23961 5.0218 3.10021 5.43688L3.19501 5.46871ZM2.83643 6.87047C2.93123 6.36725 3.05179 5.89543 3.19501 5.46871L3.10021 5.43689C2.95534 5.86853 2.83368 6.34486 2.73816 6.85196L2.83643 6.87047ZM2.64403 8.29589C2.67566 7.85989 2.74035 7.38043 2.83643 6.87047L2.73816 6.85196C2.64151 7.36498 2.57624 7.84825 2.54429 8.28865L2.64403 8.29589ZM2.59527 9.67536C2.59527 9.2053 2.61153 8.74126 2.64403 8.29591L2.54429 8.28863C2.51161 8.73656 2.49528 9.20303 2.49528 9.67536H2.59527ZM3.3995 11.73C2.85991 11.2401 2.59527 10.5705 2.59527 9.67536H2.49528C2.49528 10.5921 2.7674 11.2912 3.33229 11.804L3.3995 11.73ZM5.65152 12.4764C4.6852 12.4764 3.95084 12.2304 3.3995 11.73L3.33229 11.804C3.90676 12.3254 4.66759 12.5764 5.65152 12.5764V12.4764ZM18.3483 12.4764H5.65152V12.5764H18.3483V12.4764Z" fill="white"/>
</svg>
