<svg width="32" height="26" viewBox="0 0 32 26" fill="none" xmlns="http://www.w3.org/2000/svg">
<path fill-rule="evenodd" clip-rule="evenodd" d="M7.65753 0.0150452H29.5753C30.8612 0.0150452 31.9425 1.06673 31.9425 2.38134V15.9948C31.9425 17.2802 30.8904 18.3611 29.5753 18.3611H27.4712V21.2825C27.4712 21.7207 27.1205 22.042 26.7114 22.042C26.5068 22.042 26.3315 21.9544 26.1854 21.8083L22.7662 18.3611H7.65753C6.37168 18.3611 5.29041 17.3094 5.29041 15.9948V2.38134C5.29041 1.09594 6.34246 0.0150452 7.65753 0.0150452ZM8.82648 9.53864C8.82648 10.7364 9.82009 11.7297 11.0183 11.7297C12.2457 11.7297 13.21 10.7364 13.21 9.53864C13.21 8.34089 12.2164 7.34763 11.0183 7.34763C9.82009 7.34763 8.82648 8.34089 8.82648 9.53864ZM18.7041 11.7297C17.5059 11.7297 16.5123 10.7364 16.5123 9.53864C16.5123 8.34089 17.5059 7.34763 18.7041 7.34763C19.9023 7.34763 20.8959 8.34089 20.8959 9.53864C20.8959 10.7364 19.9023 11.7297 18.7041 11.7297ZM24.1689 9.53864C24.1689 10.7364 25.1625 11.7297 26.3607 11.7297C27.5589 11.7297 28.5525 10.7364 28.5525 9.53864C28.5525 8.34089 27.5589 7.34763 26.3607 7.34763C25.1625 7.34763 24.1689 8.34089 24.1689 9.53864Z" fill="#3DB241"/>
<path d="M3.94609 16.0533V11.4083H1.54974C0.702251 11.4083 0.000881206 12.1094 0.000881206 12.9566V21.896C-0.0283425 22.8016 0.673027 23.5027 1.54974 23.5027H2.92326V25.4308C2.92326 25.6937 3.15705 25.9274 3.42006 25.9274C3.56618 25.9274 3.68307 25.869 3.77074 25.7813L6.02097 23.5319H15.957C16.8045 23.5319 17.5059 22.8308 17.5059 21.9836V19.7634H7.6575C5.61184 19.7634 3.94609 18.0982 3.94609 16.0533Z" fill="#3DB241"/>
</svg>
